<?xml version="1.0" encoding="UTF-8" standalone="no"?>
<!-- Created with Inkscape (http://www.inkscape.org/) -->

<svg
   version="1.1"
   id="svg1"
   width="3415.8301"
   height="647.34003"
   viewBox="0 0 3415.8301 647.34003"
   sodipodi:docname="cronologic.svg"
   inkscape:version="1.3 (0e150ed6c4, 2023-07-21)"
   xmlns:inkscape="http://www.inkscape.org/namespaces/inkscape"
   xmlns:sodipodi="http://sodipodi.sourceforge.net/DTD/sodipodi-0.dtd"
   xmlns="http://www.w3.org/2000/svg"
   xmlns:svg="http://www.w3.org/2000/svg">
  <defs
     id="defs1" />
  <sodipodi:namedview
     id="namedview1"
     pagecolor="#ffffff"
     bordercolor="#000000"
     borderopacity="0.25"
     inkscape:showpageshadow="2"
     inkscape:pageopacity="0.0"
     inkscape:pagecheckerboard="0"
     inkscape:deskcolor="#d1d1d1"
     inkscape:zoom="0.78487511"
     inkscape:cx="1707.915"
     inkscape:cy="324.25541"
     inkscape:window-width="3440"
     inkscape:window-height="1369"
     inkscape:window-x="-8"
     inkscape:window-y="-8"
     inkscape:window-maximized="1"
     inkscape:current-layer="g1">
    <inkscape:page
       x="0"
       y="0"
       inkscape:label="1"
       id="page1"
       width="3415.8301"
       height="647.34003"
       margin="0"
       bleed="0" />
  </sodipodi:namedview>
  <g
     id="g1"
     inkscape:groupmode="layer"
     inkscape:label="1">
    <path
       id="path1"
       d="M 2193.613,368.152 V 100.559 c 0.024,-2.504 0.485,-4.985 1.367,-7.325 0.586,-1.55 1.403,-3 2.422,-4.308 3.528,-4.738 9.094,-7.52 15,-7.5 2.043,-0.039 4.078,0.293 6,0.984 4.375,1.469 8.055,4.504 10.336,8.52 1.641,2.886 2.485,6.16 2.453,9.48 v 267.801 c 0.102,5.043 -1.816,9.914 -5.332,13.535 -3.511,3.617 -8.324,5.68 -13.367,5.727 -7.941,0 -18.879,-6.106 -18.879,-19.321 z"
       style="fill:#376eb5;fill-opacity:1;fill-rule:evenodd;stroke:none"
       transform="scale(1.3333333)" />
    <path
       id="path2"
       d="m 2231.113,19.125 c 0,10.563 -8.562,19.125 -19.125,19.125 -10.562,0 -19.125,-8.562 -19.125,-19.125 0,-10.563 8.563,-19.125 19.125,-19.125 10.563,0 19.125,8.562 19.125,19.125 z"
       style="fill:#376eb5;fill-opacity:1;fill-rule:nonzero;stroke:none"
       transform="scale(1.3333333)" />
    <path
       id="path3"
       d="M 1427.863,367.395 V 18.719 c 0,-8.781 7.883,-18.621 18.586,-18.621 11.16,0 18.992,9.683 18.992,18.613 0,8.402 0,336.488 0,348.699 0,4.336 -0.285,6.18 -1.433,9.309 -0.863,2.312 -2.25,4.39 -4.059,6.074 -1.566,1.363 -3.336,2.473 -5.25,3.285 -2.703,1.047 -5.594,1.52 -8.488,1.395 -2.816,-0.059 -5.586,-0.758 -8.094,-2.039 -1.777,-0.926 -3.394,-2.125 -4.801,-3.555 -1.449,-1.379 -2.628,-3.016 -3.472,-4.832 -1.145,-2.578 -1.981,-4.223 -1.981,-9.652 z"
       style="fill:#376eb5;fill-opacity:1;fill-rule:evenodd;stroke:none"
       transform="scale(1.3333333)" />
    <path
       id="path4"
       d="m 2523.449,174.227 c -2.285,-3.551 -27.254,-46.329 -82.14,-54.278 -29.618,-4.293 -77.024,5.93 -105.848,41.188 -12.93,15.812 -23.84,35.699 -25.332,76.011 -0.832,22.399 6.277,41.25 15.433,56.297 10.793,17.746 24.571,30.129 33.391,35.692 0,0 13.942,9.359 27.75,14.039 8.527,2.89 18.906,6.078 33,6.683 21.508,0.922 42.465,-4.246 57.18,-12 15.523,-8.168 22.254,-14.445 28.738,-20.886 8.543,-8.789 14.363,-16.36 18.211,-23.129 2.805,-4.391 2.648,-5.289 4.844,-7.832 2.023,-2.446 4.648,-4.324 7.613,-5.453 5.934,-2.161 11.25,-1.582 16.719,1.5 4.133,2.668 7.105,6.793 8.324,11.558 0.895,4.141 0.594,8.453 -0.871,12.43 -0.793,2.019 -1.887,3.906 -3.246,5.601 -4.277,7.145 -9.09,13.957 -14.391,20.375 -7.09,8.68 -15.16,16.508 -24.047,23.336 -10.156,7.559 -21.121,14.715 -31.175,18.914 -12.137,5.071 -24.317,9.293 -38.161,11.473 -9.453,1.5 -18.968,1.711 -28.246,1.711 -16.695,0 -34.058,-3.637 -48.636,-9.059 -13.575,-5.054 -24.75,-11.785 -30.985,-15.472 -12.98,-8.766 -24.769,-19.168 -35.086,-30.953 -5.922,-6.832 -9.664,-12.653 -14.351,-21.196 -14.809,-26.949 -19.946,-49.941 -20.25,-71.355 -0.133,-7.813 0.226,-15.625 1.078,-23.391 1.418,-13.937 6.898,-36.64 19.066,-57.203 0,0 13.094,-26.004 42.856,-48.406 9.703,-7.184 20.289,-13.094 31.5,-17.578 14.472,-5.867 30.75,-10.336 46.273,-11.438 7.27,-0.457 14.559,-0.5 21.832,-0.129 18.36,0.961 40.36,6.157 51.797,12.051 14.66,6.969 20.723,11.395 26.961,15.535 3.84,2.551 8.648,6.164 13.426,10.117 6.672,5.559 12.793,11.747 18.277,18.481 4.453,5.601 10.156,15.211 13.059,20.391 2.359,4.214 3.394,9.382 1.289,16.66 -0.938,3.078 -2.731,5.832 -5.168,7.933 -1.668,1.336 -3.567,2.352 -5.602,3 -2.054,0.633 -4.183,0.981 -6.332,1.028 -4.519,0.148 -8.945,-1.328 -12.472,-4.164 -3.547,-2.911 -4.747,-5.723 -6.278,-8.082 z"
       style="fill:#376eb5;fill-opacity:1;fill-rule:evenodd;stroke:none"
       transform="scale(1.3333333)" />
    <path
       id="path5"
       d="m 1895.699,421.371 c 3.953,1.719 4.555,3.43 18.09,9.902 5.543,2.649 10.336,4.899 15.969,6.973 5.785,2.234 11.73,4.02 17.789,5.34 16.109,3 27.301,4.5 40.238,4.703 7.77,0.106 20.25,-1.574 27.645,-3.555 11.664,-3.113 18.554,-5.535 24.898,-9.218 28.098,-16.305 38.192,-30.899 43.953,-39.094 4.211,-6.121 7.735,-12.688 10.5,-19.586 2.555,-6.215 3.172,-7.387 4.895,-15.484 1.726,-8.102 3.242,-25.563 3.886,-31.18 0,0 -10.5,16.215 -33.421,31.18 -17.848,12.621 -44.914,25.918 -73.778,26.121 -28.859,0.203 -49.656,-4.336 -65.25,-10.735 -25.363,-9.898 -48.379,-27.687 -61.402,-42.972 -4.543,-5.348 -9.899,-11.313 -15.75,-22.172 -6.75,-12.442 -12.328,-24.996 -15.418,-35.578 -2.852,-10.688 -4.59,-18.864 -5.078,-30.145 -0.496,-8.922 -0.445,-17.871 0.156,-26.789 1.074,-14.25 4.906,-27.793 8.949,-38.738 4.739,-12.844 11.118,-25.02 18.981,-36.223 9.426,-13.215 21.031,-24.73 34.312,-34.059 5.434,-3.8 12.805,-9 22.172,-13.5 8.672,-4.113 17.656,-7.527 26.871,-10.214 10.727,-3.254 26.875,-5.828 41.133,-5.672 9.899,-0.078 19.781,0.847 29.496,2.762 14.668,3.058 26.567,6.3 40.59,14.25 16.828,9.531 33.832,21.218 45.988,35.25 v -32.063 c 0,-15.953 13.172,-19.402 18.707,-19.402 5.813,0 18.043,4.363 18.043,19.289 v 228.211 c 0,0 0,7.183 0,15.75 0,0 -0.832,18.285 -2.457,26.191 -1.019,4.918 -3.961,13.625 -5.933,18.395 -0.895,2.168 -4.606,10.5 -5.821,13.343 -2.203,4.828 -4.847,9.446 -7.906,13.786 -3.516,5.25 -1.793,2.859 -8.25,11.339 -1.934,2.543 -4.5,4.926 -6.75,7.688 -3.672,4.613 -5.16,5.25 -8.355,8.535 -2.332,2.379 -4.387,3.988 -7.625,6.75 -5.899,5.016 -12.192,9.547 -18.825,13.539 -5.699,3.559 -11.671,6.66 -17.859,9.277 -6.656,2.649 -13.469,4.903 -20.391,6.75 -6.336,1.813 -12.793,3.172 -19.32,4.063 -12.668,1.621 -31.133,1.305 -40.726,0.43 -10.817,-0.993 -14.543,-1.598 -20.25,-2.536 -4.731,-0.75 -10.5,-2.191 -15.75,-3.593 -7.223,-1.942 -13.29,-4.215 -22.207,-7.649 -3.997,-1.5 -11.551,-4.769 -17.864,-7.898 -4.808,-2.399 -9.488,-5.039 -14.027,-7.914 -2.149,-1.223 -4.051,-2.84 -5.609,-4.762 -0.801,-0.992 -1.485,-2.066 -2.047,-3.211 -0.836,-1.785 -1.442,-3.676 -1.801,-5.617 -0.375,-3.024 -0.094,-6.09 0.816,-9 1.09,-3.145 2.996,-5.945 5.52,-8.113 8.273,-6.219 16.254,-4.891 20.273,-3.145 z m 93.75,-303.125 c 8.934,0 21.481,2.07 31.262,5.09 10.656,3.285 22.941,9.691 32.363,16.785 12.188,9.18 19.598,16.133 28.258,28.598 7.5,10.742 12.996,23.25 16.656,37.554 2.125,8.293 3,16.223 3.293,25.801 0.223,10.196 -0.976,20.379 -3.562,30.246 -3.489,13.582 -9.426,26.418 -17.528,37.868 0,0 -4.281,6.878 -13.679,16.265 -9.246,9.359 -20.192,16.875 -32.25,22.141 -9.188,3.945 -20.563,9.871 -46.34,10.5 0,0 -14.543,0.922 -34.5,-4.731 -8.785,-2.492 -19.465,-7.386 -29.176,-13.051 -9.457,-5.519 -18.543,-13.058 -27.43,-24.121 -10.14,-12.003 -17.675,-25.988 -22.125,-41.062 -3.539,-12.391 -5.668,-29.715 -3.402,-45.809 3.074,-21.863 7.723,-32.586 13.297,-42.894 0,0 9.18,-15 19.371,-25.192 8.137,-8.121 17.543,-14.859 27.848,-19.949 18.269,-8.871 35.968,-14.062 57.668,-14.062 z"
       style="fill:#376eb5;fill-opacity:1;fill-rule:evenodd;stroke:none"
       transform="scale(1.3333333)" />
    <path
       id="path6"
       d="m 1658.324,118.973 c 49.004,0 97.86,36.218 109.86,88.761 4.613,20.192 5.738,47.754 -8.473,77.055 -15.684,32.32 -50.762,65.063 -103.867,65.063 -31.5,0 -67.231,-14.555 -88.989,-41.895 -17.714,-22.266 -26.511,-43.336 -26.085,-76.418 0.343,-26.43 9.996,-59.578 40.351,-85.125 12.359,-10.41 42.246,-27.441 77.203,-27.441 z m 56.649,-26.114 c 0,0 48.105,20.84 68.25,56.25 0,0 21.629,32.18 24.839,68.571 0,0 2.25,22.965 -0.906,40.558 0,0 -1.058,10.719 -8.14,30.75 -2.903,8.004 -6.594,15.7 -11.016,22.973 -5.508,8.973 -11.754,17.465 -18.676,25.398 0,0 -18.472,22.649 -53.601,38.25 0,0 -14.797,5.914 -28.5,9 0,0 -25.411,6.18 -58.582,0.575 0,0 -29.422,-3.622 -60.879,-25.5 0,0 -31.395,-21.907 -44.633,-48.946 0,0 -17.07,-28.828 -19.086,-56.902 0,0 -3.84,-23.676 2.324,-52.184 2.528,-10.675 6.024,-21.097 10.449,-31.14 0,0 7.5,-15.801 16.746,-28.004 0,0 10.165,-13.5 22.344,-23.879 0,0 16.617,-14.426 32.114,-21.348 0,0 29.902,-15.269 60.953,-15.687 0,0 33.418,-2.574 66,11.25 z"
       style="fill:#376eb5;fill-opacity:1;fill-rule:evenodd;stroke:none"
       transform="scale(1.3333333)" />
    <path
       id="path7"
       d="m 1235.332,119.016 c 49.012,0 97.859,36.218 109.867,88.765 4.613,20.188 5.739,47.75 -8.48,77.055 -15.676,32.316 -50.754,65.062 -103.86,65.062 -31.5,0 -67.23,-14.558 -88.988,-41.894 -17.723,-22.27 -26.519,-43.336 -26.086,-76.418 0.344,-26.43 9.988,-59.582 40.352,-85.125 12.351,-10.395 42.238,-27.445 77.195,-27.445 z m 56.648,-26.114 c 0,0 48.106,20.844 68.25,56.25 0,0 21.629,32.184 24.84,68.575 0,0 2.25,22.964 -0.898,40.558 0,0 -1.067,10.719 -8.141,30.75 -2.906,8.004 -6.597,15.699 -11.023,22.973 -5.508,8.969 -11.754,17.465 -18.676,25.394 0,0 -18.465,22.649 -53.602,38.25 0,0 -14.789,5.918 -28.5,9 0,0 -25.402,6.18 -58.574,0.578 0,0 -29.429,-3.621 -60.879,-25.5 0,0 -31.402,-21.906 -44.64,-48.945 0,0 -17.063,-28.832 -19.086,-56.902 0,0 -3.84,-23.68 2.332,-52.184 2.523,-10.679 6.015,-21.101 10.441,-31.14 0,0 7.5,-15.805 16.746,-28.008 0,0 10.164,-13.5 22.344,-23.879 0,0 16.625,-14.422 32.113,-21.344 0,0 29.903,-15.269 60.953,-15.691 0,0.015 33.418,-2.559 66,11.265 z"
       style="fill:#376eb5;fill-opacity:1;fill-rule:evenodd;stroke:none"
       transform="scale(1.3333333)" />
    <path
       id="path8"
       d="m 929.863,81.473 c 18.989,0.402 37.563,5.597 54,15.105 10.035,5.856 17.942,11.57 24.969,18.309 11.063,10.609 18.352,21.554 20.805,25.972 0,0 9.984,14.008 14.812,38.25 0.93,4.645 1.598,9.34 2.004,14.063 0.27,3.207 0.359,6.367 0.426,9.824 0,0 0.172,152.723 0,164.363 -0.043,3.043 0,4.414 -0.578,6.75 -1.012,5.286 -4.637,9.696 -9.629,11.715 -2.41,1.082 -5.02,1.653 -7.664,1.672 -2.606,0.063 -5.199,-0.359 -7.649,-1.246 -3.152,-1.266 -7.125,-3.602 -9.363,-7.777 -1.906,-3.387 -2.863,-7.227 -2.766,-11.114 0,-6.82 0.075,-141.66 0.075,-141.66 v -18.07 c 0,-2.16 0.367,-11.715 -1.778,-21.301 -2.054,-9.18 -5.355,-18.387 -10.078,-26.062 0,0 -7.023,-13.828 -23.168,-25.348 -12.179,-8.691 -29.109,-16.402 -49.5,-16.148 -6.597,0.097 -13.164,0.937 -19.578,2.503 -5.805,1.547 -11.465,3.61 -16.902,6.168 -10.141,4.942 -19.215,11.821 -26.707,20.25 0,0 -14.133,14.887 -19.297,39.672 -1.863,8.926 -1.652,18.75 -1.684,32.11 v 147.922 c 0,17.777 -11.465,20.078 -18,20.078 -6,0 -18.875,-3.989 -18.875,-20.055 0,-2.918 -0.914,-132.375 -1.074,-164.168 0,-4.453 0.227,-7.215 0.227,-7.215 0.433,-7.152 1.488,-14.254 3.148,-21.226 1.645,-6.618 3.797,-13.098 6.438,-19.387 5.652,-13.238 13.671,-25.012 24.5,-36.84 10.55,-11.398 23.394,-20.434 37.687,-26.512 6.613,-2.882 13.438,-5.25 20.414,-7.082 10.598,-2.66 24.668,-4.093 34.785,-3.515 z"
       style="fill:#376eb5;fill-opacity:1;fill-rule:evenodd;stroke:none"
       transform="scale(1.3333333)" />
    <path
       id="path9"
       d="m 612.891,119.078 c 49.015,0 97.863,36.219 109.871,88.762 4.609,20.191 5.734,47.754 -8.485,77.055 -15.675,32.316 -50.754,65.062 -103.859,65.062 -31.5,0 -67.23,-14.559 -88.988,-41.895 -17.715,-22.265 -26.52,-43.335 -26.086,-76.417 0.347,-26.43 9.992,-59.579 40.351,-85.125 12.352,-10.395 42.246,-27.442 77.196,-27.442 z m 56.648,-26.117 c 0,0 48.106,20.844 68.25,56.25 0,0 21.633,32.184 24.848,68.574 0,0 2.25,22.965 -0.907,40.559 0,0 -1.058,10.718 -8.136,30.75 -2.906,8.004 -6.602,15.699 -11.028,22.972 -5.507,8.973 -11.754,17.469 -18.675,25.403 0,0 -18.465,22.644 -53.602,38.25 0,0 -14.789,5.918 -28.5,9 0,0 -25.402,6.179 -58.574,0.578 0,0 -29.43,-3.621 -60.879,-25.5 0,0 -31.402,-21.906 -44.633,-48.945 0,0 -17.066,-28.829 -19.094,-56.903 0,0 -3.839,-23.676 2.332,-52.183 2.524,-10.68 6.02,-21.102 10.45,-31.141 0,0 7.5,-15.801 16.746,-28.004 0,0 10.156,-13.5 22.336,-23.883 0,0 16.629,-14.422 32.121,-21.343 0,0 29.894,-15.27 60.945,-15.692 0,0.008 33.422,-2.562 66,11.258 z"
       style="fill:#376eb5;fill-opacity:1;fill-rule:evenodd;stroke:none"
       transform="scale(1.3333333)" />
    <path
       id="path10"
       d="m 422.023,81.516 c 0.497,0 14.004,0.75 17.641,14.793 2.641,10.191 -3.09,22.5 -16.941,22.785 -5.625,0 -13.649,2.855 -15.465,3.562 -3.684,1.406 -7.098,3.438 -10.094,6 -3.211,2.633 -7.262,6.492 -8.949,8.93 -2.496,3.609 -5.699,8.297 -6.863,12.113 -2.649,8.707 -1.793,9.645 -2.829,14.797 0,0 0.422,17.852 0.09,33.242 l 0.071,170.114 c 0,16.964 -11.868,19.695 -18.789,19.695 -6.676,0 -18.793,-4.957 -18.75,-19.574 0,-7.981 -0.083,-192.75 -0.067,-194.489 0.067,-8.461 -0.172,-15.406 2.07,-26.027 1.141,-4.855 2.645,-9.621 4.5,-14.25 0.645,-1.5 1.282,-2.934 2.071,-4.5 4.109,-8.227 9.472,-15.762 15.898,-22.344 5.485,-5.484 11.68,-10.211 18.422,-14.054 4.77,-2.614 9.758,-4.805 14.91,-6.555 5.848,-1.746 14.09,-4.297 22.879,-4.207"
       style="fill:#376eb5;fill-opacity:1;fill-rule:evenodd;stroke:none"
       transform="scale(1.3333333)" />
    <path
       id="path11"
       d="m 251.617,174.211 c -2.293,-3.547 -27.254,-46.328 -82.14,-54.277 -29.618,-4.293 -77.024,5.929 -105.856,41.179 -12.93,15.821 -23.84,35.711 -25.332,76.024 -0.828,22.394 6.277,41.25 15.434,56.293 10.8,17.746 24.57,30.129 33.398,35.691 0,0 13.934,9.363 27.75,14.043 8.52,2.879 18.906,6.066 33,6.672 21.516,0.93 42.473,-4.234 57.18,-12 15.523,-8.164 22.258,-14.445 28.746,-20.887 8.535,-8.789 14.363,-16.363 18.203,-23.129 2.805,-4.386 2.656,-5.289 4.852,-7.832 2.019,-2.445 4.64,-4.324 7.605,-5.449 5.941,-2.16 11.25,-1.586 16.727,1.5 4.125,2.672 7.097,6.801 8.324,11.563 0.89,4.148 0.582,8.46 -0.895,12.437 -0.793,2.02 -1.89,3.91 -3.254,5.602 -4.273,7.144 -9.082,13.957 -14.382,20.375 -7.094,8.683 -15.165,16.515 -24.055,23.343 -10.149,7.559 -21.121,14.715 -31.176,18.914 -12.129,5.063 -24.308,9.293 -38.152,11.473 -9.457,1.5 -18.977,1.711 -28.246,1.711 -16.696,0 -34.067,-3.637 -48.645,-9.059 C 87.137,373.344 75.953,366.613 69.727,362.926 56.754,354.156 44.965,343.754 34.648,331.973 28.727,325.133 24.988,319.32 20.297,310.777 5.488,283.824 0.359,260.828 0.047,239.422 c -0.133,-7.817 0.23,-15.629 1.086,-23.399 1.418,-13.929 6.898,-36.632 19.058,-57.195 0,0 13.094,-26.004 42.856,-48.406 9.699,-7.188 20.289,-13.102 31.5,-17.586 14.465,-5.859 30.75,-10.328 46.265,-11.43 7.274,-0.457 14.563,-0.504 21.84,-0.136 18.352,0.968 40.352,6.156 51.797,12.054 14.653,6.973 20.723,11.399 26.961,15.539 3.84,2.551 8.641,6.164 13.418,10.117 6.672,5.559 12.793,11.747 18.277,18.481 4.454,5.601 10.161,15.203 13.059,20.391 2.359,4.214 3.395,9.375 1.289,16.652 -0.933,3.082 -2.726,5.836 -5.168,7.934 -1.66,1.355 -3.555,2.386 -5.594,3.046 -2.054,0.625 -4.183,0.969 -6.332,1.028 -2.644,0.07 -5.281,-0.399 -7.738,-1.383 -1.703,-0.695 -3.297,-1.633 -4.734,-2.781 -3.539,-2.961 -4.746,-5.782 -6.27,-8.137 z"
       style="fill:#376eb5;fill-opacity:1;fill-rule:evenodd;stroke:none"
       transform="scale(1.3333333)" />
  </g>
</svg>
