<?xml version="1.0" encoding="UTF-8" standalone="no"?>
<!-- Created with Inkscape (http://www.inkscape.org/) -->

<svg
   version="1.1"
   id="svg1"
   width="450"
   height="450"
   viewBox="0 0 450 450"
   sodipodi:docname="cronologic_favicon.svg"
   inkscape:version="1.3 (0e150ed6c4, 2023-07-21)"
   xmlns:inkscape="http://www.inkscape.org/namespaces/inkscape"
   xmlns:sodipodi="http://sodipodi.sourceforge.net/DTD/sodipodi-0.dtd"
   xmlns="http://www.w3.org/2000/svg"
   xmlns:svg="http://www.w3.org/2000/svg">
  <defs
     id="defs1" />
  <sodipodi:namedview
     id="namedview1"
     pagecolor="#ffffff"
     bordercolor="#000000"
     borderopacity="0.25"
     inkscape:showpageshadow="2"
     inkscape:pageopacity="0.0"
     inkscape:pagecheckerboard="0"
     inkscape:deskcolor="#d1d1d1"
     inkscape:zoom="2.219962"
     inkscape:cx="391.2229"
     inkscape:cy="225.90476"
     inkscape:window-width="3440"
     inkscape:window-height="1369"
     inkscape:window-x="-8"
     inkscape:window-y="-8"
     inkscape:window-maximized="1"
     inkscape:current-layer="g1">
    <inkscape:page
       x="0"
       y="0"
       inkscape:label="1"
       id="page1"
       width="450"
       height="450"
       margin="0"
       bleed="0" />
  </sodipodi:namedview>
  <g
     id="g1"
     inkscape:groupmode="layer"
     inkscape:label="1"
     transform="translate(-0.02699371,-108.03309)">
    <path
       id="path11"
       d="m 363.86819,251.65103 c -3.05733,-4.72933 -36.33866,-61.77067 -109.52,-72.36933 -39.49066,-5.724 -102.69866,7.90533 -141.14133,54.90533 -17.239993,21.09467 -31.786664,47.61467 -33.775997,101.36533 -1.104,29.85867 8.369333,55 20.578667,75.05733 14.4,23.66134 32.76,40.172 44.53067,47.588 0,0 18.57866,12.484 37,18.724 11.36,3.83867 25.208,8.088 44,8.896 28.68799,1.24 56.63066,-5.64533 76.23999,-16 20.69734,-10.88533 29.67734,-19.26 38.328,-27.84933 11.38,-11.71867 19.15067,-21.81733 24.27067,-30.83867 3.74,-5.848 3.54133,-7.052 6.46933,-10.44266 2.692,-3.26 6.18667,-5.76534 10.14,-7.26534 7.92133,-2.88 15,-2.11466 22.30267,2 5.5,3.56267 9.46266,9.068 11.09866,15.41734 1.18667,5.53066 0.776,11.28 -1.19333,16.58266 -1.05733,2.69334 -2.52,5.21334 -4.33867,7.46934 -5.69733,9.52533 -12.10933,18.60933 -19.176,27.16666 -9.45866,11.57733 -20.21999,22.02 -32.07333,31.124 -13.532,10.07867 -28.16133,19.62 -41.568,25.21867 -16.172,6.75066 -32.41066,12.39066 -50.86933,15.29733 -12.60933,2 -25.30267,2.28133 -37.66133,2.28133 -22.26133,0 -45.42267,-4.84933 -64.86,-12.07866 -18.088,-6.73867 -33,-15.71334 -41.30133,-20.62934 -17.29734,-11.69333 -33.016004,-25.56266 -46.772004,-41.27066 -7.894666,-9.12 -12.88,-16.87067 -19.134666,-28.26133 -19.745333,-35.93734 -26.583999,-66.59867 -26.999999,-95.14 -0.177334,-10.42267 0.306666,-20.83867 1.448,-31.19867 1.890666,-18.572 9.197333,-48.84266 25.410666,-76.26 0,0 17.458666,-34.672 57.141333,-64.54133 12.932,-9.584 27.052,-17.46933 42,-23.448 19.28667,-7.812 41,-13.77066 61.68667,-15.24 9.69866,-0.60933 19.41733,-0.672 29.11999,-0.18133 24.46934,1.29067 53.80267,8.208 69.06267,16.072 19.53733,9.29733 27.63067,15.19867 35.948,20.71867 5.12,3.40133 11.52133,8.21866 17.89067,13.48933 8.89599,7.412 17.05733,15.66266 24.36933,24.64133 5.93866,7.468 13.548,20.27067 17.412,27.188 3.14533,5.61867 4.52666,12.5 1.71866,22.20267 -1.244,4.10933 -3.63466,7.78133 -6.89066,10.57866 -2.21334,1.80667 -4.74,3.18134 -7.45867,4.06134 -2.73867,0.83333 -5.57733,1.292 -8.44267,1.37066 -3.52533,0.0933 -7.04133,-0.532 -10.31733,-1.844 -2.27067,-0.92666 -4.396,-2.17733 -6.312,-3.708 -4.71866,-3.948 -6.328,-7.70933 -8.36,-10.84933 z"
       style="fill:#376eb5;fill-opacity:1;fill-rule:evenodd;stroke:none;stroke-width:1.33333" />
  </g>
</svg>
