<?xml version="1.0" encoding="utf-8" standalone="no"?>
<!DOCTYPE svg PUBLIC "-//W3C//DTD SVG 1.1//EN"
  "http://www.w3.org/Graphics/SVG/1.1/DTD/svg11.dtd">
<svg xmlns:xlink="http://www.w3.org/1999/xlink" width="197.58pt" height="610.594314pt" viewBox="0 0 197.58 610.594314" xmlns="http://www.w3.org/2000/svg" version="1.1">
 <metadata>
  <rdf:RDF xmlns:dc="http://purl.org/dc/elements/1.1/" xmlns:cc="http://creativecommons.org/ns#" xmlns:rdf="http://www.w3.org/1999/02/22-rdf-syntax-ns#">
   <cc:Work>
    <dc:type rdf:resource="http://purl.org/dc/dcmitype/StillImage"/>
    <dc:date>2025-09-10T16:29:50.958055</dc:date>
    <dc:format>image/svg+xml</dc:format>
    <dc:creator>
     <cc:Agent>
      <dc:title>Matplotlib v3.10.5, https://matplotlib.org/</dc:title>
     </cc:Agent>
    </dc:creator>
   </cc:Work>
  </rdf:RDF>
 </metadata>
 <defs>
  <style type="text/css">*{stroke-linejoin: round; stroke-linecap: butt}</style>
 </defs>
 <g id="figure_1">
  <g id="patch_1">
   <path d="M 0 610.594314 
L 197.58 610.594314 
L 197.58 0 
L 0 0 
L 0 610.594314 
z
" style="fill: none"/>
  </g>
  <g id="axes_1">
   <g id="patch_2">
    <path d="M 26.98 150.028578 
L 192.58 150.028578 
L 192.58 47.68 
L 26.98 47.68 
z
" style="fill: #e2e2e2"/>
   </g>
   <g id="matplotlib.axis_1">
    <g id="xtick_1">
     <g id="line2d_1">
      <path d="M 54.58 150.028578 
L 54.58 47.68 
" clip-path="url(#p937a766241)" style="fill: none; stroke: #ffffff; stroke-width: 0.8; stroke-linecap: square"/>
     </g>
     <g id="line2d_2"/>
     <g id="text_1">
      <!-- $N$–1 -->
      <g style="fill: #afafaf" transform="translate(46.435 158.27061) scale(0.09 -0.09)">
       <defs>
        <path id="DejaVuSans-Oblique-4e" d="M 1081 4666 
L 1931 4666 
L 3219 666 
L 4000 4666 
L 4616 4666 
L 3706 0 
L 2853 0 
L 1569 4025 
L 788 0 
L 172 0 
L 1081 4666 
z
" transform="scale(0.015625)"/>
        <path id="DejaVuSansDisplay-2013" d="M 313 1978 
L 2888 1978 
L 2888 1528 
L 313 1528 
L 313 1978 
z
" transform="scale(0.015625)"/>
        <path id="ArialMT-31" d="M 2384 0 
L 1822 0 
L 1822 3584 
Q 1619 3391 1289 3197 
Q 959 3003 697 2906 
L 697 3450 
Q 1169 3672 1522 3987 
Q 1875 4303 2022 4600 
L 2384 4600 
L 2384 0 
z
" transform="scale(0.015625)"/>
       </defs>
       <use xlink:href="#DejaVuSans-Oblique-4e" transform="translate(0 0.09375)"/>
       <use xlink:href="#DejaVuSansDisplay-2013" transform="translate(74.804688 0.09375)"/>
       <use xlink:href="#ArialMT-31" transform="translate(124.804688 0.09375)"/>
      </g>
     </g>
    </g>
    <g id="xtick_2">
     <g id="line2d_3">
      <path d="M 109.78 150.028578 
L 109.78 47.68 
" clip-path="url(#p937a766241)" style="fill: none; stroke: #ffffff; stroke-width: 0.8; stroke-linecap: square"/>
     </g>
     <g id="line2d_4"/>
     <g id="text_2">
      <!-- $N$ -->
      <g style="fill: #afafaf" transform="translate(106.405 158.27061) scale(0.09 -0.09)">
       <use xlink:href="#DejaVuSans-Oblique-4e" transform="translate(0 0.09375)"/>
      </g>
     </g>
    </g>
    <g id="xtick_3">
     <g id="line2d_5">
      <path d="M 164.98 150.028578 
L 164.98 47.68 
" clip-path="url(#p937a766241)" style="fill: none; stroke: #ffffff; stroke-width: 0.8; stroke-linecap: square"/>
     </g>
     <g id="line2d_6"/>
     <g id="text_3">
      <!-- $N$+1 -->
      <g style="fill: #afafaf" transform="translate(156.475 158.27061) scale(0.09 -0.09)">
       <defs>
        <path id="ArialMT-2b" d="M 1603 741 
L 1603 1997 
L 356 1997 
L 356 2522 
L 1603 2522 
L 1603 3769 
L 2134 3769 
L 2134 2522 
L 3381 2522 
L 3381 1997 
L 2134 1997 
L 2134 741 
L 1603 741 
z
" transform="scale(0.015625)"/>
       </defs>
       <use xlink:href="#DejaVuSans-Oblique-4e" transform="translate(0 0.09375)"/>
       <use xlink:href="#ArialMT-2b" transform="translate(74.804688 0.09375)"/>
       <use xlink:href="#ArialMT-31" transform="translate(133.203125 0.09375)"/>
      </g>
     </g>
    </g>
    <g id="text_4">
     <!-- Bin -->
     <g style="fill: #afafaf" transform="translate(103.276094 168.501391) scale(0.09 -0.09)">
      <defs>
       <path id="ArialMT-42" d="M 469 0 
L 469 4581 
L 2188 4581 
Q 2713 4581 3030 4442 
Q 3347 4303 3526 4014 
Q 3706 3725 3706 3409 
Q 3706 3116 3547 2856 
Q 3388 2597 3066 2438 
Q 3481 2316 3704 2022 
Q 3928 1728 3928 1328 
Q 3928 1006 3792 729 
Q 3656 453 3456 303 
Q 3256 153 2954 76 
Q 2653 0 2216 0 
L 469 0 
z
M 1075 2656 
L 2066 2656 
Q 2469 2656 2644 2709 
Q 2875 2778 2992 2937 
Q 3109 3097 3109 3338 
Q 3109 3566 3000 3739 
Q 2891 3913 2687 3977 
Q 2484 4041 1991 4041 
L 1075 4041 
L 1075 2656 
z
M 1075 541 
L 2216 541 
Q 2509 541 2628 563 
Q 2838 600 2978 687 
Q 3119 775 3209 942 
Q 3300 1109 3300 1328 
Q 3300 1584 3169 1773 
Q 3038 1963 2805 2039 
Q 2572 2116 2134 2116 
L 1075 2116 
L 1075 541 
z
" transform="scale(0.015625)"/>
       <path id="ArialMT-69" d="M 425 3934 
L 425 4581 
L 988 4581 
L 988 3934 
L 425 3934 
z
M 425 0 
L 425 3319 
L 988 3319 
L 988 0 
L 425 0 
z
" transform="scale(0.015625)"/>
       <path id="ArialMT-6e" d="M 422 0 
L 422 3319 
L 928 3319 
L 928 2847 
Q 1294 3394 1984 3394 
Q 2284 3394 2536 3286 
Q 2788 3178 2913 3003 
Q 3038 2828 3088 2588 
Q 3119 2431 3119 2041 
L 3119 0 
L 2556 0 
L 2556 2019 
Q 2556 2363 2490 2533 
Q 2425 2703 2258 2804 
Q 2091 2906 1866 2906 
Q 1506 2906 1245 2678 
Q 984 2450 984 1813 
L 984 0 
L 422 0 
z
" transform="scale(0.015625)"/>
      </defs>
      <use xlink:href="#ArialMT-42"/>
      <use xlink:href="#ArialMT-69" transform="translate(66.699219 0)"/>
      <use xlink:href="#ArialMT-6e" transform="translate(88.916016 0)"/>
     </g>
    </g>
   </g>
   <g id="matplotlib.axis_2">
    <g id="ytick_1">
     <g id="line2d_7">
      <path d="M 26.98 145.154837 
L 192.58 145.154837 
" clip-path="url(#p937a766241)" style="fill: none; stroke: #ffffff; stroke-width: 0.8; stroke-linecap: square"/>
     </g>
     <g id="line2d_8"/>
     <g id="text_5">
      <!-- 0 -->
      <g style="fill: #afafaf" transform="translate(20.175156 148.375852) scale(0.09 -0.09)">
       <defs>
        <path id="ArialMT-30" d="M 266 2259 
Q 266 3072 433 3567 
Q 600 4063 929 4331 
Q 1259 4600 1759 4600 
Q 2128 4600 2406 4451 
Q 2684 4303 2865 4023 
Q 3047 3744 3150 3342 
Q 3253 2941 3253 2259 
Q 3253 1453 3087 958 
Q 2922 463 2592 192 
Q 2263 -78 1759 -78 
Q 1097 -78 719 397 
Q 266 969 266 2259 
z
M 844 2259 
Q 844 1131 1108 757 
Q 1372 384 1759 384 
Q 2147 384 2411 759 
Q 2675 1134 2675 2259 
Q 2675 3391 2411 3762 
Q 2147 4134 1753 4134 
Q 1366 4134 1134 3806 
Q 844 3388 844 2259 
z
" transform="scale(0.015625)"/>
       </defs>
       <use xlink:href="#ArialMT-30"/>
      </g>
     </g>
    </g>
    <g id="ytick_2">
     <g id="line2d_9">
      <path d="M 26.98 118.067969 
L 192.58 118.067969 
" clip-path="url(#p937a766241)" style="fill: none; stroke: #ffffff; stroke-width: 0.8; stroke-linecap: square"/>
     </g>
     <g id="line2d_10"/>
     <g id="text_6">
      <!-- 20 -->
      <g style="fill: #afafaf" transform="translate(15.170312 121.288985) scale(0.09 -0.09)">
       <defs>
        <path id="ArialMT-32" d="M 3222 541 
L 3222 0 
L 194 0 
Q 188 203 259 391 
Q 375 700 629 1000 
Q 884 1300 1366 1694 
Q 2113 2306 2375 2664 
Q 2638 3022 2638 3341 
Q 2638 3675 2398 3904 
Q 2159 4134 1775 4134 
Q 1369 4134 1125 3890 
Q 881 3647 878 3216 
L 300 3275 
Q 359 3922 746 4261 
Q 1134 4600 1788 4600 
Q 2447 4600 2831 4234 
Q 3216 3869 3216 3328 
Q 3216 3053 3103 2787 
Q 2991 2522 2730 2228 
Q 2469 1934 1863 1422 
Q 1356 997 1212 845 
Q 1069 694 975 541 
L 3222 541 
z
" transform="scale(0.015625)"/>
       </defs>
       <use xlink:href="#ArialMT-32"/>
       <use xlink:href="#ArialMT-30" transform="translate(55.615234 0)"/>
      </g>
     </g>
    </g>
    <g id="ytick_3">
     <g id="line2d_11">
      <path d="M 26.98 90.981102 
L 192.58 90.981102 
" clip-path="url(#p937a766241)" style="fill: none; stroke: #ffffff; stroke-width: 0.8; stroke-linecap: square"/>
     </g>
     <g id="line2d_12"/>
     <g id="text_7">
      <!-- 40 -->
      <g style="fill: #afafaf" transform="translate(15.170312 94.202118) scale(0.09 -0.09)">
       <defs>
        <path id="ArialMT-34" d="M 2069 0 
L 2069 1097 
L 81 1097 
L 81 1613 
L 2172 4581 
L 2631 4581 
L 2631 1613 
L 3250 1613 
L 3250 1097 
L 2631 1097 
L 2631 0 
L 2069 0 
z
M 2069 1613 
L 2069 3678 
L 634 1613 
L 2069 1613 
z
" transform="scale(0.015625)"/>
       </defs>
       <use xlink:href="#ArialMT-34"/>
       <use xlink:href="#ArialMT-30" transform="translate(55.615234 0)"/>
      </g>
     </g>
    </g>
    <g id="ytick_4">
     <g id="line2d_13">
      <path d="M 26.98 63.894235 
L 192.58 63.894235 
" clip-path="url(#p937a766241)" style="fill: none; stroke: #ffffff; stroke-width: 0.8; stroke-linecap: square"/>
     </g>
     <g id="line2d_14"/>
     <g id="text_8">
      <!-- 60 -->
      <g style="fill: #afafaf" transform="translate(15.170312 67.11525) scale(0.09 -0.09)">
       <defs>
        <path id="ArialMT-36" d="M 3184 3459 
L 2625 3416 
Q 2550 3747 2413 3897 
Q 2184 4138 1850 4138 
Q 1581 4138 1378 3988 
Q 1113 3794 959 3422 
Q 806 3050 800 2363 
Q 1003 2672 1297 2822 
Q 1591 2972 1913 2972 
Q 2475 2972 2870 2558 
Q 3266 2144 3266 1488 
Q 3266 1056 3080 686 
Q 2894 316 2569 119 
Q 2244 -78 1831 -78 
Q 1128 -78 684 439 
Q 241 956 241 2144 
Q 241 3472 731 4075 
Q 1159 4600 1884 4600 
Q 2425 4600 2770 4297 
Q 3116 3994 3184 3459 
z
M 888 1484 
Q 888 1194 1011 928 
Q 1134 663 1356 523 
Q 1578 384 1822 384 
Q 2178 384 2434 671 
Q 2691 959 2691 1453 
Q 2691 1928 2437 2201 
Q 2184 2475 1800 2475 
Q 1419 2475 1153 2201 
Q 888 1928 888 1484 
z
" transform="scale(0.015625)"/>
       </defs>
       <use xlink:href="#ArialMT-36"/>
       <use xlink:href="#ArialMT-30" transform="translate(55.615234 0)"/>
      </g>
     </g>
    </g>
    <g id="text_9">
     <!-- Intensity (%) -->
     <g style="fill: #afafaf" transform="translate(11.276094 123.860227) rotate(-90) scale(0.09 -0.09)">
      <defs>
       <path id="ArialMT-49" d="M 597 0 
L 597 4581 
L 1203 4581 
L 1203 0 
L 597 0 
z
" transform="scale(0.015625)"/>
       <path id="ArialMT-74" d="M 1650 503 
L 1731 6 
Q 1494 -44 1306 -44 
Q 1000 -44 831 53 
Q 663 150 594 308 
Q 525 466 525 972 
L 525 2881 
L 113 2881 
L 113 3319 
L 525 3319 
L 525 4141 
L 1084 4478 
L 1084 3319 
L 1650 3319 
L 1650 2881 
L 1084 2881 
L 1084 941 
Q 1084 700 1114 631 
Q 1144 563 1211 522 
Q 1278 481 1403 481 
Q 1497 481 1650 503 
z
" transform="scale(0.015625)"/>
       <path id="ArialMT-65" d="M 2694 1069 
L 3275 997 
Q 3138 488 2766 206 
Q 2394 -75 1816 -75 
Q 1088 -75 661 373 
Q 234 822 234 1631 
Q 234 2469 665 2931 
Q 1097 3394 1784 3394 
Q 2450 3394 2872 2941 
Q 3294 2488 3294 1666 
Q 3294 1616 3291 1516 
L 816 1516 
Q 847 969 1125 678 
Q 1403 388 1819 388 
Q 2128 388 2347 550 
Q 2566 713 2694 1069 
z
M 847 1978 
L 2700 1978 
Q 2663 2397 2488 2606 
Q 2219 2931 1791 2931 
Q 1403 2931 1139 2672 
Q 875 2413 847 1978 
z
" transform="scale(0.015625)"/>
       <path id="ArialMT-73" d="M 197 991 
L 753 1078 
Q 800 744 1014 566 
Q 1228 388 1613 388 
Q 2000 388 2187 545 
Q 2375 703 2375 916 
Q 2375 1106 2209 1216 
Q 2094 1291 1634 1406 
Q 1016 1563 777 1677 
Q 538 1791 414 1992 
Q 291 2194 291 2438 
Q 291 2659 392 2848 
Q 494 3038 669 3163 
Q 800 3259 1026 3326 
Q 1253 3394 1513 3394 
Q 1903 3394 2198 3281 
Q 2494 3169 2634 2976 
Q 2775 2784 2828 2463 
L 2278 2388 
Q 2241 2644 2061 2787 
Q 1881 2931 1553 2931 
Q 1166 2931 1000 2803 
Q 834 2675 834 2503 
Q 834 2394 903 2306 
Q 972 2216 1119 2156 
Q 1203 2125 1616 2013 
Q 2213 1853 2448 1751 
Q 2684 1650 2818 1456 
Q 2953 1263 2953 975 
Q 2953 694 2789 445 
Q 2625 197 2315 61 
Q 2006 -75 1616 -75 
Q 969 -75 630 194 
Q 291 463 197 991 
z
" transform="scale(0.015625)"/>
       <path id="ArialMT-79" d="M 397 -1278 
L 334 -750 
Q 519 -800 656 -800 
Q 844 -800 956 -737 
Q 1069 -675 1141 -563 
Q 1194 -478 1313 -144 
Q 1328 -97 1363 -6 
L 103 3319 
L 709 3319 
L 1400 1397 
Q 1534 1031 1641 628 
Q 1738 1016 1872 1384 
L 2581 3319 
L 3144 3319 
L 1881 -56 
Q 1678 -603 1566 -809 
Q 1416 -1088 1222 -1217 
Q 1028 -1347 759 -1347 
Q 597 -1347 397 -1278 
z
" transform="scale(0.015625)"/>
       <path id="ArialMT-20" transform="scale(0.015625)"/>
       <path id="ArialMT-28" d="M 1497 -1347 
Q 1031 -759 709 28 
Q 388 816 388 1659 
Q 388 2403 628 3084 
Q 909 3875 1497 4659 
L 1900 4659 
Q 1522 4009 1400 3731 
Q 1209 3300 1100 2831 
Q 966 2247 966 1656 
Q 966 153 1900 -1347 
L 1497 -1347 
z
" transform="scale(0.015625)"/>
       <path id="ArialMT-25" d="M 372 3481 
Q 372 3972 619 4315 
Q 866 4659 1334 4659 
Q 1766 4659 2048 4351 
Q 2331 4044 2331 3447 
Q 2331 2866 2045 2552 
Q 1759 2238 1341 2238 
Q 925 2238 648 2547 
Q 372 2856 372 3481 
z
M 1350 4272 
Q 1141 4272 1002 4090 
Q 863 3909 863 3425 
Q 863 2984 1003 2804 
Q 1144 2625 1350 2625 
Q 1563 2625 1702 2806 
Q 1841 2988 1841 3469 
Q 1841 3913 1700 4092 
Q 1559 4272 1350 4272 
z
M 1353 -169 
L 3859 4659 
L 4316 4659 
L 1819 -169 
L 1353 -169 
z
M 3334 1075 
Q 3334 1569 3581 1911 
Q 3828 2253 4300 2253 
Q 4731 2253 5014 1945 
Q 5297 1638 5297 1041 
Q 5297 459 5011 145 
Q 4725 -169 4303 -169 
Q 3888 -169 3611 142 
Q 3334 453 3334 1075 
z
M 4316 1866 
Q 4103 1866 3964 1684 
Q 3825 1503 3825 1019 
Q 3825 581 3965 400 
Q 4106 219 4313 219 
Q 4528 219 4667 400 
Q 4806 581 4806 1063 
Q 4806 1506 4665 1686 
Q 4525 1866 4316 1866 
z
" transform="scale(0.015625)"/>
       <path id="ArialMT-29" d="M 791 -1347 
L 388 -1347 
Q 1322 153 1322 1656 
Q 1322 2244 1188 2822 
Q 1081 3291 891 3722 
Q 769 4003 388 4659 
L 791 4659 
Q 1378 3875 1659 3084 
Q 1900 2403 1900 1659 
Q 1900 816 1576 28 
Q 1253 -759 791 -1347 
z
" transform="scale(0.015625)"/>
      </defs>
      <use xlink:href="#ArialMT-49"/>
      <use xlink:href="#ArialMT-6e" transform="translate(27.783203 0)"/>
      <use xlink:href="#ArialMT-74" transform="translate(83.398438 0)"/>
      <use xlink:href="#ArialMT-65" transform="translate(111.181641 0)"/>
      <use xlink:href="#ArialMT-6e" transform="translate(166.796875 0)"/>
      <use xlink:href="#ArialMT-73" transform="translate(222.412109 0)"/>
      <use xlink:href="#ArialMT-69" transform="translate(272.412109 0)"/>
      <use xlink:href="#ArialMT-74" transform="translate(294.628906 0)"/>
      <use xlink:href="#ArialMT-79" transform="translate(322.412109 0)"/>
      <use xlink:href="#ArialMT-20" transform="translate(372.412109 0)"/>
      <use xlink:href="#ArialMT-28" transform="translate(400.195312 0)"/>
      <use xlink:href="#ArialMT-25" transform="translate(433.496094 0)"/>
      <use xlink:href="#ArialMT-29" transform="translate(522.412109 0)"/>
     </g>
    </g>
   </g>
   <g id="patch_3">
    <path d="M -175.328 145.154837 
L -157.112 145.154837 
L -157.112 145.154837 
L -175.328 145.154837 
z
" clip-path="url(#p937a766241)" style="fill: #376eb5"/>
   </g>
   <g id="patch_4">
    <path d="M -120.128 145.154837 
L -101.912 145.154837 
L -101.912 145.154837 
L -120.128 145.154837 
z
" clip-path="url(#p937a766241)" style="fill: #376eb5"/>
   </g>
   <g id="patch_5">
    <path d="M -64.928 145.154837 
L -46.712 145.154837 
L -46.712 145.154837 
L -64.928 145.154837 
z
" clip-path="url(#p937a766241)" style="fill: #376eb5"/>
   </g>
   <g id="patch_6">
    <path d="M -9.728 145.154837 
L 8.488 145.154837 
L 8.488 144.966752 
L -9.728 144.966752 
z
" clip-path="url(#p937a766241)" style="fill: #376eb5"/>
   </g>
   <g id="patch_7">
    <path d="M 45.472 145.154837 
L 63.688 145.154837 
L 63.688 108.666427 
L 45.472 108.666427 
z
" clip-path="url(#p937a766241)" style="fill: #376eb5"/>
   </g>
   <g id="patch_8">
    <path d="M 100.672 145.154837 
L 118.888 145.154837 
L 118.888 52.321659 
L 100.672 52.321659 
z
" clip-path="url(#p937a766241)" style="fill: #376eb5"/>
   </g>
   <g id="patch_9">
    <path d="M 155.872 145.154837 
L 174.088 145.154837 
L 174.088 139.418257 
L 155.872 139.418257 
z
" clip-path="url(#p937a766241)" style="fill: #376eb5"/>
   </g>
   <g id="patch_10">
    <path d="M 211.072 145.154837 
L 229.288 145.154837 
L 229.288 144.966752 
L 211.072 144.966752 
z
" clip-path="url(#p937a766241)" style="fill: #376eb5"/>
   </g>
   <g id="patch_11">
    <path d="M 266.272 145.154837 
L 284.488 145.154837 
L 284.488 145.154837 
L 266.272 145.154837 
z
" clip-path="url(#p937a766241)" style="fill: #376eb5"/>
   </g>
   <g id="text_10">
    <!-- Channel A -->
    <g style="fill: #afafaf" transform="translate(26.98 42.68) scale(0.108 -0.108)">
     <defs>
      <path id="ArialMT-43" d="M 3763 1606 
L 4369 1453 
Q 4178 706 3683 314 
Q 3188 -78 2472 -78 
Q 1731 -78 1267 223 
Q 803 525 561 1097 
Q 319 1669 319 2325 
Q 319 3041 592 3573 
Q 866 4106 1370 4382 
Q 1875 4659 2481 4659 
Q 3169 4659 3637 4309 
Q 4106 3959 4291 3325 
L 3694 3184 
Q 3534 3684 3231 3912 
Q 2928 4141 2469 4141 
Q 1941 4141 1586 3887 
Q 1231 3634 1087 3207 
Q 944 2781 944 2328 
Q 944 1744 1114 1308 
Q 1284 872 1643 656 
Q 2003 441 2422 441 
Q 2931 441 3284 734 
Q 3638 1028 3763 1606 
z
" transform="scale(0.015625)"/>
      <path id="ArialMT-68" d="M 422 0 
L 422 4581 
L 984 4581 
L 984 2938 
Q 1378 3394 1978 3394 
Q 2347 3394 2619 3248 
Q 2891 3103 3008 2847 
Q 3125 2591 3125 2103 
L 3125 0 
L 2563 0 
L 2563 2103 
Q 2563 2525 2380 2717 
Q 2197 2909 1863 2909 
Q 1613 2909 1392 2779 
Q 1172 2650 1078 2428 
Q 984 2206 984 1816 
L 984 0 
L 422 0 
z
" transform="scale(0.015625)"/>
      <path id="ArialMT-61" d="M 2588 409 
Q 2275 144 1986 34 
Q 1697 -75 1366 -75 
Q 819 -75 525 192 
Q 231 459 231 875 
Q 231 1119 342 1320 
Q 453 1522 633 1644 
Q 813 1766 1038 1828 
Q 1203 1872 1538 1913 
Q 2219 1994 2541 2106 
Q 2544 2222 2544 2253 
Q 2544 2597 2384 2738 
Q 2169 2928 1744 2928 
Q 1347 2928 1158 2789 
Q 969 2650 878 2297 
L 328 2372 
Q 403 2725 575 2942 
Q 747 3159 1072 3276 
Q 1397 3394 1825 3394 
Q 2250 3394 2515 3294 
Q 2781 3194 2906 3042 
Q 3031 2891 3081 2659 
Q 3109 2516 3109 2141 
L 3109 1391 
Q 3109 606 3145 398 
Q 3181 191 3288 0 
L 2700 0 
Q 2613 175 2588 409 
z
M 2541 1666 
Q 2234 1541 1622 1453 
Q 1275 1403 1131 1340 
Q 988 1278 909 1158 
Q 831 1038 831 891 
Q 831 666 1001 516 
Q 1172 366 1500 366 
Q 1825 366 2078 508 
Q 2331 650 2450 897 
Q 2541 1088 2541 1459 
L 2541 1666 
z
" transform="scale(0.015625)"/>
      <path id="ArialMT-6c" d="M 409 0 
L 409 4581 
L 972 4581 
L 972 0 
L 409 0 
z
" transform="scale(0.015625)"/>
      <path id="ArialMT-41" d="M -9 0 
L 1750 4581 
L 2403 4581 
L 4278 0 
L 3588 0 
L 3053 1388 
L 1138 1388 
L 634 0 
L -9 0 
z
M 1313 1881 
L 2866 1881 
L 2388 3150 
Q 2169 3728 2063 4100 
Q 1975 3659 1816 3225 
L 1313 1881 
z
" transform="scale(0.015625)"/>
     </defs>
     <use xlink:href="#ArialMT-43"/>
     <use xlink:href="#ArialMT-68" transform="translate(72.216797 0)"/>
     <use xlink:href="#ArialMT-61" transform="translate(127.832031 0)"/>
     <use xlink:href="#ArialMT-6e" transform="translate(183.447266 0)"/>
     <use xlink:href="#ArialMT-6e" transform="translate(239.0625 0)"/>
     <use xlink:href="#ArialMT-65" transform="translate(294.677734 0)"/>
     <use xlink:href="#ArialMT-6c" transform="translate(350.292969 0)"/>
     <use xlink:href="#ArialMT-20" transform="translate(372.509766 0)"/>
     <use xlink:href="#ArialMT-41" transform="translate(394.792969 0)"/>
    </g>
   </g>
  </g>
  <g id="axes_2">
   <g id="patch_12">
    <path d="M 26.98 295.177157 
L 192.58 295.177157 
L 192.58 192.828578 
L 26.98 192.828578 
z
" style="fill: #e2e2e2"/>
   </g>
   <g id="matplotlib.axis_3">
    <g id="xtick_4">
     <g id="line2d_15">
      <path d="M 54.58 295.177157 
L 54.58 192.828578 
" clip-path="url(#p9fbef1046b)" style="fill: none; stroke: #ffffff; stroke-width: 0.8; stroke-linecap: square"/>
     </g>
     <g id="line2d_16"/>
     <g id="text_11">
      <!-- $N$–1 -->
      <g style="fill: #afafaf" transform="translate(46.435 303.419188) scale(0.09 -0.09)">
       <use xlink:href="#DejaVuSans-Oblique-4e" transform="translate(0 0.09375)"/>
       <use xlink:href="#DejaVuSansDisplay-2013" transform="translate(74.804688 0.09375)"/>
       <use xlink:href="#ArialMT-31" transform="translate(124.804688 0.09375)"/>
      </g>
     </g>
    </g>
    <g id="xtick_5">
     <g id="line2d_17">
      <path d="M 109.78 295.177157 
L 109.78 192.828578 
" clip-path="url(#p9fbef1046b)" style="fill: none; stroke: #ffffff; stroke-width: 0.8; stroke-linecap: square"/>
     </g>
     <g id="line2d_18"/>
     <g id="text_12">
      <!-- $N$ -->
      <g style="fill: #afafaf" transform="translate(106.405 303.419188) scale(0.09 -0.09)">
       <use xlink:href="#DejaVuSans-Oblique-4e" transform="translate(0 0.09375)"/>
      </g>
     </g>
    </g>
    <g id="xtick_6">
     <g id="line2d_19">
      <path d="M 164.98 295.177157 
L 164.98 192.828578 
" clip-path="url(#p9fbef1046b)" style="fill: none; stroke: #ffffff; stroke-width: 0.8; stroke-linecap: square"/>
     </g>
     <g id="line2d_20"/>
     <g id="text_13">
      <!-- $N$+1 -->
      <g style="fill: #afafaf" transform="translate(156.475 303.419188) scale(0.09 -0.09)">
       <use xlink:href="#DejaVuSans-Oblique-4e" transform="translate(0 0.09375)"/>
       <use xlink:href="#ArialMT-2b" transform="translate(74.804688 0.09375)"/>
       <use xlink:href="#ArialMT-31" transform="translate(133.203125 0.09375)"/>
      </g>
     </g>
    </g>
    <g id="text_14">
     <!-- Bin -->
     <g style="fill: #afafaf" transform="translate(103.276094 313.649969) scale(0.09 -0.09)">
      <use xlink:href="#ArialMT-42"/>
      <use xlink:href="#ArialMT-69" transform="translate(66.699219 0)"/>
      <use xlink:href="#ArialMT-6e" transform="translate(88.916016 0)"/>
     </g>
    </g>
   </g>
   <g id="matplotlib.axis_4">
    <g id="ytick_5">
     <g id="line2d_21">
      <path d="M 26.98 290.303415 
L 192.58 290.303415 
" clip-path="url(#p9fbef1046b)" style="fill: none; stroke: #ffffff; stroke-width: 0.8; stroke-linecap: square"/>
     </g>
     <g id="line2d_22"/>
     <g id="text_15">
      <!-- 0 -->
      <g style="fill: #afafaf" transform="translate(20.175156 293.524431) scale(0.09 -0.09)">
       <use xlink:href="#ArialMT-30"/>
      </g>
     </g>
    </g>
    <g id="ytick_6">
     <g id="line2d_23">
      <path d="M 26.98 259.04244 
L 192.58 259.04244 
" clip-path="url(#p9fbef1046b)" style="fill: none; stroke: #ffffff; stroke-width: 0.8; stroke-linecap: square"/>
     </g>
     <g id="line2d_24"/>
     <g id="text_16">
      <!-- 20 -->
      <g style="fill: #afafaf" transform="translate(15.170312 262.263456) scale(0.09 -0.09)">
       <use xlink:href="#ArialMT-32"/>
       <use xlink:href="#ArialMT-30" transform="translate(55.615234 0)"/>
      </g>
     </g>
    </g>
    <g id="ytick_7">
     <g id="line2d_25">
      <path d="M 26.98 227.781465 
L 192.58 227.781465 
" clip-path="url(#p9fbef1046b)" style="fill: none; stroke: #ffffff; stroke-width: 0.8; stroke-linecap: square"/>
     </g>
     <g id="line2d_26"/>
     <g id="text_17">
      <!-- 40 -->
      <g style="fill: #afafaf" transform="translate(15.170312 231.00248) scale(0.09 -0.09)">
       <use xlink:href="#ArialMT-34"/>
       <use xlink:href="#ArialMT-30" transform="translate(55.615234 0)"/>
      </g>
     </g>
    </g>
    <g id="ytick_8">
     <g id="line2d_27">
      <path d="M 26.98 196.52049 
L 192.58 196.52049 
" clip-path="url(#p9fbef1046b)" style="fill: none; stroke: #ffffff; stroke-width: 0.8; stroke-linecap: square"/>
     </g>
     <g id="line2d_28"/>
     <g id="text_18">
      <!-- 60 -->
      <g style="fill: #afafaf" transform="translate(15.170312 199.741505) scale(0.09 -0.09)">
       <use xlink:href="#ArialMT-36"/>
       <use xlink:href="#ArialMT-30" transform="translate(55.615234 0)"/>
      </g>
     </g>
    </g>
    <g id="text_19">
     <!-- Intensity (%) -->
     <g style="fill: #afafaf" transform="translate(11.276094 269.008805) rotate(-90) scale(0.09 -0.09)">
      <use xlink:href="#ArialMT-49"/>
      <use xlink:href="#ArialMT-6e" transform="translate(27.783203 0)"/>
      <use xlink:href="#ArialMT-74" transform="translate(83.398438 0)"/>
      <use xlink:href="#ArialMT-65" transform="translate(111.181641 0)"/>
      <use xlink:href="#ArialMT-6e" transform="translate(166.796875 0)"/>
      <use xlink:href="#ArialMT-73" transform="translate(222.412109 0)"/>
      <use xlink:href="#ArialMT-69" transform="translate(272.412109 0)"/>
      <use xlink:href="#ArialMT-74" transform="translate(294.628906 0)"/>
      <use xlink:href="#ArialMT-79" transform="translate(322.412109 0)"/>
      <use xlink:href="#ArialMT-20" transform="translate(372.412109 0)"/>
      <use xlink:href="#ArialMT-28" transform="translate(400.195312 0)"/>
      <use xlink:href="#ArialMT-25" transform="translate(433.496094 0)"/>
      <use xlink:href="#ArialMT-29" transform="translate(522.412109 0)"/>
     </g>
    </g>
   </g>
   <g id="patch_13">
    <path d="M -64.928 290.303415 
L -46.712 290.303415 
L -46.712 290.303415 
L -64.928 290.303415 
z
" clip-path="url(#p9fbef1046b)" style="fill: #376eb5"/>
   </g>
   <g id="patch_14">
    <path d="M -9.728 290.303415 
L 8.488 290.303415 
L 8.488 290.303415 
L -9.728 290.303415 
z
" clip-path="url(#p9fbef1046b)" style="fill: #376eb5"/>
   </g>
   <g id="patch_15">
    <path d="M 45.472 290.303415 
L 63.688 290.303415 
L 63.688 287.432446 
L 45.472 287.432446 
z
" clip-path="url(#p9fbef1046b)" style="fill: #376eb5"/>
   </g>
   <g id="patch_16">
    <path d="M 100.672 290.303415 
L 118.888 290.303415 
L 118.888 197.470237 
L 100.672 197.470237 
z
" clip-path="url(#p9fbef1046b)" style="fill: #376eb5"/>
   </g>
   <g id="patch_17">
    <path d="M 155.872 290.303415 
L 174.088 290.303415 
L 174.088 230.463105 
L 155.872 230.463105 
z
" clip-path="url(#p9fbef1046b)" style="fill: #376eb5"/>
   </g>
   <g id="patch_18">
    <path d="M 211.072 290.303415 
L 229.288 290.303415 
L 229.288 289.542996 
L 211.072 289.542996 
z
" clip-path="url(#p9fbef1046b)" style="fill: #376eb5"/>
   </g>
   <g id="patch_19">
    <path d="M 266.272 290.303415 
L 284.488 290.303415 
L 284.488 290.303415 
L 266.272 290.303415 
z
" clip-path="url(#p9fbef1046b)" style="fill: #376eb5"/>
   </g>
   <g id="patch_20">
    <path d="M 321.472 290.303415 
L 339.688 290.303415 
L 339.688 290.303415 
L 321.472 290.303415 
z
" clip-path="url(#p9fbef1046b)" style="fill: #376eb5"/>
   </g>
   <g id="patch_21">
    <path d="M 376.672 290.303415 
L 394.888 290.303415 
L 394.888 290.303415 
L 376.672 290.303415 
z
" clip-path="url(#p9fbef1046b)" style="fill: #376eb5"/>
   </g>
   <g id="text_20">
    <!-- Channel B -->
    <g style="fill: #afafaf" transform="translate(26.98 187.828578) scale(0.108 -0.108)">
     <use xlink:href="#ArialMT-43"/>
     <use xlink:href="#ArialMT-68" transform="translate(72.216797 0)"/>
     <use xlink:href="#ArialMT-61" transform="translate(127.832031 0)"/>
     <use xlink:href="#ArialMT-6e" transform="translate(183.447266 0)"/>
     <use xlink:href="#ArialMT-6e" transform="translate(239.0625 0)"/>
     <use xlink:href="#ArialMT-65" transform="translate(294.677734 0)"/>
     <use xlink:href="#ArialMT-6c" transform="translate(350.292969 0)"/>
     <use xlink:href="#ArialMT-20" transform="translate(372.509766 0)"/>
     <use xlink:href="#ArialMT-42" transform="translate(400.292969 0)"/>
    </g>
   </g>
  </g>
  <g id="axes_3">
   <g id="patch_22">
    <path d="M 26.98 440.325735 
L 192.58 440.325735 
L 192.58 337.977157 
L 26.98 337.977157 
z
" style="fill: #e2e2e2"/>
   </g>
   <g id="matplotlib.axis_5">
    <g id="xtick_7">
     <g id="line2d_29">
      <path d="M 54.58 440.325735 
L 54.58 337.977157 
" clip-path="url(#p3426bbeb67)" style="fill: none; stroke: #ffffff; stroke-width: 0.8; stroke-linecap: square"/>
     </g>
     <g id="line2d_30"/>
     <g id="text_21">
      <!-- $N$–1 -->
      <g style="fill: #afafaf" transform="translate(46.435 448.567767) scale(0.09 -0.09)">
       <use xlink:href="#DejaVuSans-Oblique-4e" transform="translate(0 0.09375)"/>
       <use xlink:href="#DejaVuSansDisplay-2013" transform="translate(74.804688 0.09375)"/>
       <use xlink:href="#ArialMT-31" transform="translate(124.804688 0.09375)"/>
      </g>
     </g>
    </g>
    <g id="xtick_8">
     <g id="line2d_31">
      <path d="M 109.78 440.325735 
L 109.78 337.977157 
" clip-path="url(#p3426bbeb67)" style="fill: none; stroke: #ffffff; stroke-width: 0.8; stroke-linecap: square"/>
     </g>
     <g id="line2d_32"/>
     <g id="text_22">
      <!-- $N$ -->
      <g style="fill: #afafaf" transform="translate(106.405 448.567767) scale(0.09 -0.09)">
       <use xlink:href="#DejaVuSans-Oblique-4e" transform="translate(0 0.09375)"/>
      </g>
     </g>
    </g>
    <g id="xtick_9">
     <g id="line2d_33">
      <path d="M 164.98 440.325735 
L 164.98 337.977157 
" clip-path="url(#p3426bbeb67)" style="fill: none; stroke: #ffffff; stroke-width: 0.8; stroke-linecap: square"/>
     </g>
     <g id="line2d_34"/>
     <g id="text_23">
      <!-- $N$+1 -->
      <g style="fill: #afafaf" transform="translate(156.475 448.567767) scale(0.09 -0.09)">
       <use xlink:href="#DejaVuSans-Oblique-4e" transform="translate(0 0.09375)"/>
       <use xlink:href="#ArialMT-2b" transform="translate(74.804688 0.09375)"/>
       <use xlink:href="#ArialMT-31" transform="translate(133.203125 0.09375)"/>
      </g>
     </g>
    </g>
    <g id="text_24">
     <!-- Bin -->
     <g style="fill: #afafaf" transform="translate(103.276094 458.798548) scale(0.09 -0.09)">
      <use xlink:href="#ArialMT-42"/>
      <use xlink:href="#ArialMT-69" transform="translate(66.699219 0)"/>
      <use xlink:href="#ArialMT-6e" transform="translate(88.916016 0)"/>
     </g>
    </g>
   </g>
   <g id="matplotlib.axis_6">
    <g id="ytick_9">
     <g id="line2d_35">
      <path d="M 26.98 435.451994 
L 192.58 435.451994 
" clip-path="url(#p3426bbeb67)" style="fill: none; stroke: #ffffff; stroke-width: 0.8; stroke-linecap: square"/>
     </g>
     <g id="line2d_36"/>
     <g id="text_25">
      <!-- 0 -->
      <g style="fill: #afafaf" transform="translate(20.175156 438.673009) scale(0.09 -0.09)">
       <use xlink:href="#ArialMT-30"/>
      </g>
     </g>
    </g>
    <g id="ytick_10">
     <g id="line2d_37">
      <path d="M 26.98 405.868726 
L 192.58 405.868726 
" clip-path="url(#p3426bbeb67)" style="fill: none; stroke: #ffffff; stroke-width: 0.8; stroke-linecap: square"/>
     </g>
     <g id="line2d_38"/>
     <g id="text_26">
      <!-- 20 -->
      <g style="fill: #afafaf" transform="translate(15.170312 409.089741) scale(0.09 -0.09)">
       <use xlink:href="#ArialMT-32"/>
       <use xlink:href="#ArialMT-30" transform="translate(55.615234 0)"/>
      </g>
     </g>
    </g>
    <g id="ytick_11">
     <g id="line2d_39">
      <path d="M 26.98 376.285458 
L 192.58 376.285458 
" clip-path="url(#p3426bbeb67)" style="fill: none; stroke: #ffffff; stroke-width: 0.8; stroke-linecap: square"/>
     </g>
     <g id="line2d_40"/>
     <g id="text_27">
      <!-- 40 -->
      <g style="fill: #afafaf" transform="translate(15.170312 379.506473) scale(0.09 -0.09)">
       <use xlink:href="#ArialMT-34"/>
       <use xlink:href="#ArialMT-30" transform="translate(55.615234 0)"/>
      </g>
     </g>
    </g>
    <g id="ytick_12">
     <g id="line2d_41">
      <path d="M 26.98 346.70219 
L 192.58 346.70219 
" clip-path="url(#p3426bbeb67)" style="fill: none; stroke: #ffffff; stroke-width: 0.8; stroke-linecap: square"/>
     </g>
     <g id="line2d_42"/>
     <g id="text_28">
      <!-- 60 -->
      <g style="fill: #afafaf" transform="translate(15.170312 349.923205) scale(0.09 -0.09)">
       <use xlink:href="#ArialMT-36"/>
       <use xlink:href="#ArialMT-30" transform="translate(55.615234 0)"/>
      </g>
     </g>
    </g>
    <g id="text_29">
     <!-- Intensity (%) -->
     <g style="fill: #afafaf" transform="translate(11.276094 414.157384) rotate(-90) scale(0.09 -0.09)">
      <use xlink:href="#ArialMT-49"/>
      <use xlink:href="#ArialMT-6e" transform="translate(27.783203 0)"/>
      <use xlink:href="#ArialMT-74" transform="translate(83.398438 0)"/>
      <use xlink:href="#ArialMT-65" transform="translate(111.181641 0)"/>
      <use xlink:href="#ArialMT-6e" transform="translate(166.796875 0)"/>
      <use xlink:href="#ArialMT-73" transform="translate(222.412109 0)"/>
      <use xlink:href="#ArialMT-69" transform="translate(272.412109 0)"/>
      <use xlink:href="#ArialMT-74" transform="translate(294.628906 0)"/>
      <use xlink:href="#ArialMT-79" transform="translate(322.412109 0)"/>
      <use xlink:href="#ArialMT-20" transform="translate(372.412109 0)"/>
      <use xlink:href="#ArialMT-28" transform="translate(400.195312 0)"/>
      <use xlink:href="#ArialMT-25" transform="translate(433.496094 0)"/>
      <use xlink:href="#ArialMT-29" transform="translate(522.412109 0)"/>
     </g>
    </g>
   </g>
   <g id="patch_23">
    <path d="M -120.128 435.451994 
L -101.912 435.451994 
L -101.912 435.451994 
L -120.128 435.451994 
z
" clip-path="url(#p3426bbeb67)" style="fill: #376eb5"/>
   </g>
   <g id="patch_24">
    <path d="M -64.928 435.451994 
L -46.712 435.451994 
L -46.712 435.451994 
L -64.928 435.451994 
z
" clip-path="url(#p3426bbeb67)" style="fill: #376eb5"/>
   </g>
   <g id="patch_25">
    <path d="M -9.728 435.451994 
L 8.488 435.451994 
L 8.488 434.692024 
L -9.728 434.692024 
z
" clip-path="url(#p3426bbeb67)" style="fill: #376eb5"/>
   </g>
   <g id="patch_26">
    <path d="M 45.472 435.451994 
L 63.688 435.451994 
L 63.688 385.513239 
L 45.472 385.513239 
z
" clip-path="url(#p3426bbeb67)" style="fill: #376eb5"/>
   </g>
   <g id="patch_27">
    <path d="M 100.672 435.451994 
L 118.888 435.451994 
L 118.888 342.618816 
L 100.672 342.618816 
z
" clip-path="url(#p3426bbeb67)" style="fill: #376eb5"/>
   </g>
   <g id="patch_28">
    <path d="M 155.872 435.451994 
L 174.088 435.451994 
L 174.088 431.44754 
L 155.872 431.44754 
z
" clip-path="url(#p3426bbeb67)" style="fill: #376eb5"/>
   </g>
   <g id="patch_29">
    <path d="M 211.072 435.451994 
L 229.288 435.451994 
L 229.288 435.072009 
L 211.072 435.072009 
z
" clip-path="url(#p3426bbeb67)" style="fill: #376eb5"/>
   </g>
   <g id="patch_30">
    <path d="M 266.272 435.451994 
L 284.488 435.451994 
L 284.488 435.451994 
L 266.272 435.451994 
z
" clip-path="url(#p3426bbeb67)" style="fill: #376eb5"/>
   </g>
   <g id="patch_31">
    <path d="M 321.472 435.451994 
L 339.688 435.451994 
L 339.688 435.451994 
L 321.472 435.451994 
z
" clip-path="url(#p3426bbeb67)" style="fill: #376eb5"/>
   </g>
   <g id="text_30">
    <!-- Channel C -->
    <g style="fill: #afafaf" transform="translate(26.98 332.977157) scale(0.108 -0.108)">
     <use xlink:href="#ArialMT-43"/>
     <use xlink:href="#ArialMT-68" transform="translate(72.216797 0)"/>
     <use xlink:href="#ArialMT-61" transform="translate(127.832031 0)"/>
     <use xlink:href="#ArialMT-6e" transform="translate(183.447266 0)"/>
     <use xlink:href="#ArialMT-6e" transform="translate(239.0625 0)"/>
     <use xlink:href="#ArialMT-65" transform="translate(294.677734 0)"/>
     <use xlink:href="#ArialMT-6c" transform="translate(350.292969 0)"/>
     <use xlink:href="#ArialMT-20" transform="translate(372.509766 0)"/>
     <use xlink:href="#ArialMT-43" transform="translate(400.292969 0)"/>
    </g>
   </g>
  </g>
  <g id="axes_4">
   <g id="patch_32">
    <path d="M 26.98 585.474314 
L 192.58 585.474314 
L 192.58 483.125735 
L 26.98 483.125735 
z
" style="fill: #e2e2e2"/>
   </g>
   <g id="matplotlib.axis_7">
    <g id="xtick_10">
     <g id="line2d_43">
      <path d="M 54.58 585.474314 
L 54.58 483.125735 
" clip-path="url(#p23e74714d1)" style="fill: none; stroke: #ffffff; stroke-width: 0.8; stroke-linecap: square"/>
     </g>
     <g id="line2d_44"/>
     <g id="text_31">
      <!-- $N$–1 -->
      <g style="fill: #afafaf" transform="translate(46.435 593.716345) scale(0.09 -0.09)">
       <use xlink:href="#DejaVuSans-Oblique-4e" transform="translate(0 0.09375)"/>
       <use xlink:href="#DejaVuSansDisplay-2013" transform="translate(74.804688 0.09375)"/>
       <use xlink:href="#ArialMT-31" transform="translate(124.804688 0.09375)"/>
      </g>
     </g>
    </g>
    <g id="xtick_11">
     <g id="line2d_45">
      <path d="M 109.78 585.474314 
L 109.78 483.125735 
" clip-path="url(#p23e74714d1)" style="fill: none; stroke: #ffffff; stroke-width: 0.8; stroke-linecap: square"/>
     </g>
     <g id="line2d_46"/>
     <g id="text_32">
      <!-- $N$ -->
      <g style="fill: #afafaf" transform="translate(106.405 593.716345) scale(0.09 -0.09)">
       <use xlink:href="#DejaVuSans-Oblique-4e" transform="translate(0 0.09375)"/>
      </g>
     </g>
    </g>
    <g id="xtick_12">
     <g id="line2d_47">
      <path d="M 164.98 585.474314 
L 164.98 483.125735 
" clip-path="url(#p23e74714d1)" style="fill: none; stroke: #ffffff; stroke-width: 0.8; stroke-linecap: square"/>
     </g>
     <g id="line2d_48"/>
     <g id="text_33">
      <!-- $N$+1 -->
      <g style="fill: #afafaf" transform="translate(156.475 593.716345) scale(0.09 -0.09)">
       <use xlink:href="#DejaVuSans-Oblique-4e" transform="translate(0 0.09375)"/>
       <use xlink:href="#ArialMT-2b" transform="translate(74.804688 0.09375)"/>
       <use xlink:href="#ArialMT-31" transform="translate(133.203125 0.09375)"/>
      </g>
     </g>
    </g>
    <g id="text_34">
     <!-- Bin -->
     <g style="fill: #afafaf" transform="translate(103.276094 603.947126) scale(0.09 -0.09)">
      <use xlink:href="#ArialMT-42"/>
      <use xlink:href="#ArialMT-69" transform="translate(66.699219 0)"/>
      <use xlink:href="#ArialMT-6e" transform="translate(88.916016 0)"/>
     </g>
    </g>
   </g>
   <g id="matplotlib.axis_8">
    <g id="ytick_13">
     <g id="line2d_49">
      <path d="M 26.98 580.600572 
L 192.58 580.600572 
" clip-path="url(#p23e74714d1)" style="fill: none; stroke: #ffffff; stroke-width: 0.8; stroke-linecap: square"/>
     </g>
     <g id="line2d_50"/>
     <g id="text_35">
      <!-- 0 -->
      <g style="fill: #afafaf" transform="translate(20.175156 583.821588) scale(0.09 -0.09)">
       <use xlink:href="#ArialMT-30"/>
      </g>
     </g>
    </g>
    <g id="ytick_14">
     <g id="line2d_51">
      <path d="M 26.98 555.794309 
L 192.58 555.794309 
" clip-path="url(#p23e74714d1)" style="fill: none; stroke: #ffffff; stroke-width: 0.8; stroke-linecap: square"/>
     </g>
     <g id="line2d_52"/>
     <g id="text_36">
      <!-- 20 -->
      <g style="fill: #afafaf" transform="translate(15.170312 559.015325) scale(0.09 -0.09)">
       <use xlink:href="#ArialMT-32"/>
       <use xlink:href="#ArialMT-30" transform="translate(55.615234 0)"/>
      </g>
     </g>
    </g>
    <g id="ytick_15">
     <g id="line2d_53">
      <path d="M 26.98 530.988047 
L 192.58 530.988047 
" clip-path="url(#p23e74714d1)" style="fill: none; stroke: #ffffff; stroke-width: 0.8; stroke-linecap: square"/>
     </g>
     <g id="line2d_54"/>
     <g id="text_37">
      <!-- 40 -->
      <g style="fill: #afafaf" transform="translate(15.170312 534.209062) scale(0.09 -0.09)">
       <use xlink:href="#ArialMT-34"/>
       <use xlink:href="#ArialMT-30" transform="translate(55.615234 0)"/>
      </g>
     </g>
    </g>
    <g id="ytick_16">
     <g id="line2d_55">
      <path d="M 26.98 506.181784 
L 192.58 506.181784 
" clip-path="url(#p23e74714d1)" style="fill: none; stroke: #ffffff; stroke-width: 0.8; stroke-linecap: square"/>
     </g>
     <g id="line2d_56"/>
     <g id="text_38">
      <!-- 60 -->
      <g style="fill: #afafaf" transform="translate(15.170312 509.4028) scale(0.09 -0.09)">
       <use xlink:href="#ArialMT-36"/>
       <use xlink:href="#ArialMT-30" transform="translate(55.615234 0)"/>
      </g>
     </g>
    </g>
    <g id="text_39">
     <!-- Intensity (%) -->
     <g style="fill: #afafaf" transform="translate(11.276094 559.305962) rotate(-90) scale(0.09 -0.09)">
      <use xlink:href="#ArialMT-49"/>
      <use xlink:href="#ArialMT-6e" transform="translate(27.783203 0)"/>
      <use xlink:href="#ArialMT-74" transform="translate(83.398438 0)"/>
      <use xlink:href="#ArialMT-65" transform="translate(111.181641 0)"/>
      <use xlink:href="#ArialMT-6e" transform="translate(166.796875 0)"/>
      <use xlink:href="#ArialMT-73" transform="translate(222.412109 0)"/>
      <use xlink:href="#ArialMT-69" transform="translate(272.412109 0)"/>
      <use xlink:href="#ArialMT-74" transform="translate(294.628906 0)"/>
      <use xlink:href="#ArialMT-79" transform="translate(322.412109 0)"/>
      <use xlink:href="#ArialMT-20" transform="translate(372.412109 0)"/>
      <use xlink:href="#ArialMT-28" transform="translate(400.195312 0)"/>
      <use xlink:href="#ArialMT-25" transform="translate(433.496094 0)"/>
      <use xlink:href="#ArialMT-29" transform="translate(522.412109 0)"/>
     </g>
    </g>
   </g>
   <g id="patch_33">
    <path d="M -120.128 580.600572 
L -101.912 580.600572 
L -101.912 580.600572 
L -120.128 580.600572 
z
" clip-path="url(#p23e74714d1)" style="fill: #376eb5"/>
   </g>
   <g id="patch_34">
    <path d="M -64.928 580.600572 
L -46.712 580.600572 
L -46.712 580.600572 
L -64.928 580.600572 
z
" clip-path="url(#p23e74714d1)" style="fill: #376eb5"/>
   </g>
   <g id="patch_35">
    <path d="M -9.728 580.600572 
L 8.488 580.600572 
L 8.488 580.219957 
L -9.728 580.219957 
z
" clip-path="url(#p23e74714d1)" style="fill: #376eb5"/>
   </g>
   <g id="patch_36">
    <path d="M 45.472 580.600572 
L 63.688 580.600572 
L 63.688 566.247711 
L 45.472 566.247711 
z
" clip-path="url(#p23e74714d1)" style="fill: #376eb5"/>
   </g>
   <g id="patch_37">
    <path d="M 100.672 580.600572 
L 118.888 580.600572 
L 118.888 487.767394 
L 100.672 487.767394 
z
" clip-path="url(#p23e74714d1)" style="fill: #376eb5"/>
   </g>
   <g id="patch_38">
    <path d="M 155.872 580.600572 
L 174.088 580.600572 
L 174.088 564.332359 
L 155.872 564.332359 
z
" clip-path="url(#p23e74714d1)" style="fill: #376eb5"/>
   </g>
   <g id="patch_39">
    <path d="M 211.072 580.600572 
L 229.288 580.600572 
L 229.288 580.404126 
L 211.072 580.404126 
z
" clip-path="url(#p23e74714d1)" style="fill: #376eb5"/>
   </g>
   <g id="patch_40">
    <path d="M 266.272 580.600572 
L 284.488 580.600572 
L 284.488 580.600572 
L 266.272 580.600572 
z
" clip-path="url(#p23e74714d1)" style="fill: #376eb5"/>
   </g>
   <g id="patch_41">
    <path d="M 321.472 580.600572 
L 339.688 580.600572 
L 339.688 580.600572 
L 321.472 580.600572 
z
" clip-path="url(#p23e74714d1)" style="fill: #376eb5"/>
   </g>
   <g id="text_40">
    <!-- Channel D -->
    <g style="fill: #afafaf" transform="translate(26.98 478.125735) scale(0.108 -0.108)">
     <defs>
      <path id="ArialMT-44" d="M 494 0 
L 494 4581 
L 2072 4581 
Q 2606 4581 2888 4516 
Q 3281 4425 3559 4188 
Q 3922 3881 4101 3404 
Q 4281 2928 4281 2316 
Q 4281 1794 4159 1391 
Q 4038 988 3847 723 
Q 3656 459 3429 307 
Q 3203 156 2883 78 
Q 2563 0 2147 0 
L 494 0 
z
M 1100 541 
L 2078 541 
Q 2531 541 2789 625 
Q 3047 709 3200 863 
Q 3416 1078 3536 1442 
Q 3656 1806 3656 2325 
Q 3656 3044 3420 3430 
Q 3184 3816 2847 3947 
Q 2603 4041 2063 4041 
L 1100 4041 
L 1100 541 
z
" transform="scale(0.015625)"/>
     </defs>
     <use xlink:href="#ArialMT-43"/>
     <use xlink:href="#ArialMT-68" transform="translate(72.216797 0)"/>
     <use xlink:href="#ArialMT-61" transform="translate(127.832031 0)"/>
     <use xlink:href="#ArialMT-6e" transform="translate(183.447266 0)"/>
     <use xlink:href="#ArialMT-6e" transform="translate(239.0625 0)"/>
     <use xlink:href="#ArialMT-65" transform="translate(294.677734 0)"/>
     <use xlink:href="#ArialMT-6c" transform="translate(350.292969 0)"/>
     <use xlink:href="#ArialMT-20" transform="translate(372.509766 0)"/>
     <use xlink:href="#ArialMT-44" transform="translate(400.292969 0)"/>
    </g>
   </g>
  </g>
  <g id="text_41">
   <!-- xTDC4 – Cable Delay Measurements -->
   <g style="fill: #afafaf" transform="translate(9.360094 20.073949) scale(0.108 -0.108)">
    <defs>
     <path id="ArialMT-78" d="M 47 0 
L 1259 1725 
L 138 3319 
L 841 3319 
L 1350 2541 
Q 1494 2319 1581 2169 
Q 1719 2375 1834 2534 
L 2394 3319 
L 3066 3319 
L 1919 1756 
L 3153 0 
L 2463 0 
L 1781 1031 
L 1600 1309 
L 728 0 
L 47 0 
z
" transform="scale(0.015625)"/>
     <path id="ArialMT-54" d="M 1659 0 
L 1659 4041 
L 150 4041 
L 150 4581 
L 3781 4581 
L 3781 4041 
L 2266 4041 
L 2266 0 
L 1659 0 
z
" transform="scale(0.015625)"/>
     <path id="ArialMT-2013" d="M -13 1431 
L -13 1884 
L 3547 1884 
L 3547 1431 
L -13 1431 
z
" transform="scale(0.015625)"/>
     <path id="ArialMT-62" d="M 941 0 
L 419 0 
L 419 4581 
L 981 4581 
L 981 2947 
Q 1338 3394 1891 3394 
Q 2197 3394 2470 3270 
Q 2744 3147 2920 2923 
Q 3097 2700 3197 2384 
Q 3297 2069 3297 1709 
Q 3297 856 2875 390 
Q 2453 -75 1863 -75 
Q 1275 -75 941 416 
L 941 0 
z
M 934 1684 
Q 934 1088 1097 822 
Q 1363 388 1816 388 
Q 2184 388 2453 708 
Q 2722 1028 2722 1663 
Q 2722 2313 2464 2622 
Q 2206 2931 1841 2931 
Q 1472 2931 1203 2611 
Q 934 2291 934 1684 
z
" transform="scale(0.015625)"/>
     <path id="ArialMT-4d" d="M 475 0 
L 475 4581 
L 1388 4581 
L 2472 1338 
Q 2622 884 2691 659 
Q 2769 909 2934 1394 
L 4031 4581 
L 4847 4581 
L 4847 0 
L 4263 0 
L 4263 3834 
L 2931 0 
L 2384 0 
L 1059 3900 
L 1059 0 
L 475 0 
z
" transform="scale(0.015625)"/>
     <path id="ArialMT-75" d="M 2597 0 
L 2597 488 
Q 2209 -75 1544 -75 
Q 1250 -75 995 37 
Q 741 150 617 320 
Q 494 491 444 738 
Q 409 903 409 1263 
L 409 3319 
L 972 3319 
L 972 1478 
Q 972 1038 1006 884 
Q 1059 663 1231 536 
Q 1403 409 1656 409 
Q 1909 409 2131 539 
Q 2353 669 2445 892 
Q 2538 1116 2538 1541 
L 2538 3319 
L 3100 3319 
L 3100 0 
L 2597 0 
z
" transform="scale(0.015625)"/>
     <path id="ArialMT-72" d="M 416 0 
L 416 3319 
L 922 3319 
L 922 2816 
Q 1116 3169 1280 3281 
Q 1444 3394 1641 3394 
Q 1925 3394 2219 3213 
L 2025 2691 
Q 1819 2813 1613 2813 
Q 1428 2813 1281 2702 
Q 1134 2591 1072 2394 
Q 978 2094 978 1738 
L 978 0 
L 416 0 
z
" transform="scale(0.015625)"/>
     <path id="ArialMT-6d" d="M 422 0 
L 422 3319 
L 925 3319 
L 925 2853 
Q 1081 3097 1340 3245 
Q 1600 3394 1931 3394 
Q 2300 3394 2536 3241 
Q 2772 3088 2869 2813 
Q 3263 3394 3894 3394 
Q 4388 3394 4653 3120 
Q 4919 2847 4919 2278 
L 4919 0 
L 4359 0 
L 4359 2091 
Q 4359 2428 4304 2576 
Q 4250 2725 4106 2815 
Q 3963 2906 3769 2906 
Q 3419 2906 3187 2673 
Q 2956 2441 2956 1928 
L 2956 0 
L 2394 0 
L 2394 2156 
Q 2394 2531 2256 2718 
Q 2119 2906 1806 2906 
Q 1569 2906 1367 2781 
Q 1166 2656 1075 2415 
Q 984 2175 984 1722 
L 984 0 
L 422 0 
z
" transform="scale(0.015625)"/>
    </defs>
    <use xlink:href="#ArialMT-78"/>
    <use xlink:href="#ArialMT-54" transform="translate(50 0)"/>
    <use xlink:href="#ArialMT-44" transform="translate(111.083984 0)"/>
    <use xlink:href="#ArialMT-43" transform="translate(183.300781 0)"/>
    <use xlink:href="#ArialMT-34" transform="translate(255.517578 0)"/>
    <use xlink:href="#ArialMT-20" transform="translate(311.132812 0)"/>
    <use xlink:href="#ArialMT-2013" transform="translate(338.916016 0)"/>
    <use xlink:href="#ArialMT-20" transform="translate(394.53125 0)"/>
    <use xlink:href="#ArialMT-43" transform="translate(422.314453 0)"/>
    <use xlink:href="#ArialMT-61" transform="translate(494.53125 0)"/>
    <use xlink:href="#ArialMT-62" transform="translate(550.146484 0)"/>
    <use xlink:href="#ArialMT-6c" transform="translate(605.761719 0)"/>
    <use xlink:href="#ArialMT-65" transform="translate(627.978516 0)"/>
    <use xlink:href="#ArialMT-20" transform="translate(683.59375 0)"/>
    <use xlink:href="#ArialMT-44" transform="translate(711.376953 0)"/>
    <use xlink:href="#ArialMT-65" transform="translate(783.59375 0)"/>
    <use xlink:href="#ArialMT-6c" transform="translate(839.208984 0)"/>
    <use xlink:href="#ArialMT-61" transform="translate(861.425781 0)"/>
    <use xlink:href="#ArialMT-79" transform="translate(917.041016 0)"/>
    <use xlink:href="#ArialMT-20" transform="translate(967.041016 0)"/>
    <use xlink:href="#ArialMT-4d" transform="translate(994.824219 0)"/>
    <use xlink:href="#ArialMT-65" transform="translate(1078.125 0)"/>
    <use xlink:href="#ArialMT-61" transform="translate(1133.740234 0)"/>
    <use xlink:href="#ArialMT-73" transform="translate(1189.355469 0)"/>
    <use xlink:href="#ArialMT-75" transform="translate(1239.355469 0)"/>
    <use xlink:href="#ArialMT-72" transform="translate(1294.970703 0)"/>
    <use xlink:href="#ArialMT-65" transform="translate(1328.271484 0)"/>
    <use xlink:href="#ArialMT-6d" transform="translate(1383.886719 0)"/>
    <use xlink:href="#ArialMT-65" transform="translate(1467.1875 0)"/>
    <use xlink:href="#ArialMT-6e" transform="translate(1522.802734 0)"/>
    <use xlink:href="#ArialMT-74" transform="translate(1578.417969 0)"/>
    <use xlink:href="#ArialMT-73" transform="translate(1606.201172 0)"/>
   </g>
  </g>
 </g>
 <defs>
  <clipPath id="p937a766241">
   <rect x="26.98" y="47.68" width="165.6" height="102.348578"/>
  </clipPath>
  <clipPath id="p9fbef1046b">
   <rect x="26.98" y="192.828578" width="165.6" height="102.348578"/>
  </clipPath>
  <clipPath id="p3426bbeb67">
   <rect x="26.98" y="337.977157" width="165.6" height="102.348578"/>
  </clipPath>
  <clipPath id="p23e74714d1">
   <rect x="26.98" y="483.125735" width="165.6" height="102.348578"/>
  </clipPath>
 </defs>
</svg>
